<svg xmlns="http://www.w3.org/2000/svg" viewBox="232 63 216 216">
  <g transform="translate(340,175)">
    <path d="M0,0 L0,-100 A100,100 0 0,1 86.6,-50 Z" fill="#FF6B35" opacity="0.92"/>
    <path d="M0,0 L86.6,-50 A100,100 0 0,1 86.6,50 Z" fill="#F7C948" opacity="0.92"/>
    <path d="M0,0 L86.6,50 A100,100 0 0,1 0,100 Z" fill="#4CAF82" opacity="0.92"/>
    <path d="M0,0 L0,100 A100,100 0 0,1 -86.6,50 Z" fill="#5B9BD5" opacity="0.92"/>
    <path d="M0,0 L-86.6,50 A100,100 0 0,1 -86.6,-50 Z" fill="#C65DB1" opacity="0.92"/>
    <path d="M0,0 L-86.6,-50 A100,100 0 0,1 0,-100 Z" fill="#FF8C5A" opacity="0.92"/>
    <circle cx="0" cy="0" r="100" fill="none" stroke="white" stroke-width="2.5"/>
    <circle cx="0" cy="0" r="40" fill="white" stroke="#eee" stroke-width="1"/>
    <g transform="rotate(-15)">
      <line x1="-10" y1="28" x2="-10" y2="-10" stroke="#444" stroke-width="3" stroke-linecap="round"/>
      <line x1="-16" y1="-10" x2="-16" y2="-28" stroke="#444" stroke-width="2.5" stroke-linecap="round"/>
      <line x1="-10" y1="-10" x2="-10" y2="-28" stroke="#444" stroke-width="2.5" stroke-linecap="round"/>
      <line x1="-4" y1="-10" x2="-4" y2="-28" stroke="#444" stroke-width="2.5" stroke-linecap="round"/>
      <path d="M-16,-10 Q-10,-4 -4,-10" stroke="#444" stroke-width="2.5" fill="none" stroke-linecap="round"/>
    </g>
    <g transform="rotate(15)">
      <rect x="7" y="8" width="6" height="20" rx="3" fill="#444"/>
      <rect x="6" y="4" width="8" height="5" rx="1" fill="#555"/>
      <path d="M8,4 L8,-26 Q18,-20 12,4 Z" fill="#444"/>
    </g>
    <polygon points="0,-92 -9,-108 9,-108" fill="#2D2D2D"/>
  </g>
</svg>
